 <svg class="icon" viewBox="0 0 1024 1024" version="1.1" xmlns="http://www.w3.org/2000/svg" p-id="6526" height="128" width="128"><path d="M870.267 394.875c-1.598 6.738-5.53 16.61-11.05 28.529h0.124l-0.635 1.105C826.51 493.507 742.44 628.83 742.44 628.83s-0.113-0.318-0.44-0.85l-24.566 42.833H835.83L609.71 971.971l51.333-204.872H567.88l32.368-135.475c-26.194 6.328-57.139 15.022-93.808 26.828 0 0-49.593 29.092-142.869-55.961 0 0-62.904-55.5-26.43-69.376 15.514-5.898 75.306-13.384 122.359-19.753 63.58-8.612 102.696-13.169 102.696-13.169s-196.024 2.94-242.524-4.393c-46.51-7.321-105.502-85.043-118.067-153.364 0 0-19.435-37.51 41.79-19.753s314.675 69.12 314.675 69.12-329.616-101.192-351.55-125.88c-21.934-24.69-64.553-134.79-59.003-202.435 0 0 2.407-16.865 19.671-12.35 0 0 243.682 111.524 410.307 172.575s311.49 92.11 292.772 171.162z" p-id="6527"></path></svg>