 <svg class="icon" viewBox="0 0 1254 1024" version="1.1" xmlns="http://www.w3.org/2000/svg" p-id="7224" height="128" width="128"><path d="M1035.517652 464.288862a83.284664 83.284664 0 0 0-84.836564-12.152221c-2.377848-21.728608-3.302788-42.534275-7.166541-62.74398a341.096145 341.096145 0 0 0-152.270244-222.047773 494.092342 494.092342 0 0 0-576.881038 25.791347 313.125937 313.125937 0 0 0 6.208602 501.720854 61.819039 61.819039 0 0 1 25.923339 80.113867 560.007119 560.007119 0 0 0-16.280956 61.65405q3.004807 2.212858 6.043612 4.35972a317.385664 317.385664 0 0 0 36.919635-20.870663 180.174456 180.174456 0 0 1 167.592262-30.943017 419.823101 419.823101 0 0 0 224.392623-12.879175 206.626761 206.626761 0 0 0 15.026037 40.453408 229.511295 229.511295 0 0 0 30.513045 32.494918 554.591466 554.591466 0 0 1-162.110613 30.645037 623.213069 623.213069 0 0 1-176.739676-17.038909 47.123981 47.123981 0 0 0-29.226128 3.532774c-44.779131 20.936659-89.162287 42.930249-133.181467 65.154826a39.627461 39.627461 0 0 1-60.928096-44.581144 1435.624016 1435.624016 0 0 0 14.332082-107.986081 34.541787 34.541787 0 0 0-11.162285-23.512494 468.53298 468.53298 0 0 1-133.28146-200.682142c-46.464023-157.684897-3.566771-293.906169 113.830706-406.513953 213.230338-204.743882 587.812338-195.827453 792.55622 16.840921a386.932208 386.932208 0 0 1 114.325674 280.268042c0 4.325723 0 8.717441-0.494968 13.209154a24.50343 24.50343 0 0 1-3.103801 5.712634z m-57.328327 19.384758a69.745531 69.745531 0 0 1 69.348557 53.794553 240.738575 240.738575 0 0 0 68.325622 129.38471 47.387964 47.387964 0 0 1 2.739825 24.305443 49.798809 49.798809 0 0 1-24.998399-2.146863 252.758805 252.758805 0 0 0-134.107407-67.73066 67.795656 67.795656 0 0 1-52.010668-74.070254 72.651345 72.651345 0 0 1 70.70247-63.536929z m275.974318 270.228686a67.433679 67.433679 0 0 1-56.536378 68.555607 233.705026 233.705026 0 0 0-128.095792 65.08883c-8.189475 8.057484-18.162836 14.134094-25.791348 2.609833a24.701417 24.701417 0 0 1 3.301789-23.744479 244.371343 244.371343 0 0 0 66.707726-125.48796 71.032449 71.032449 0 0 1 140.414003 12.978169z m-205.106858 200.120178a70.07551 70.07551 0 0 1-61.720046 69.183567 68.258627 68.258627 0 0 1-76.31711-49.831807A247.674131 247.674131 0 0 0 840.846125 839.795802a41.113366 41.113366 0 0 1-2.773822-21.002654 46.001053 46.001053 0 0 1 23.115519 0.362977 271.219622 271.219622 0 0 0 138.334136 69.942518 64.427872 64.427872 0 0 1 49.435833 64.923841z m-344.794909-201.837068a66.706726 66.706726 0 0 1 53.563568-64.230885 246.088233 246.088233 0 0 0 132.35652-66.507739 47.816936 47.816936 0 0 1 22.951529-3.302788 43.921186 43.921186 0 0 1-3.302788 22.356568 250.249966 250.249966 0 0 0-68.291624 129.648693 66.937711 66.937711 0 0 1-76.547096 51.714686 69.513546 69.513546 0 0 1-60.829102-69.678535z" p-id="7225"></path></svg>