 <svg class="icon" viewBox="0 0 1024 1024" version="1.1" xmlns="http://www.w3.org/2000/svg" p-id="3283" height="128" width="128"><path d="M133.740812 147.108572c1.006059-37.932214 32.054807-68.157331 70.005084-68.144687h433.663773c38.188696-0.350405 69.605911 29.97586 70.622808 68.146493l0.359435 467.548271h46.103508V147.108572c-0.339567-63.838683-52.009814-115.50893-115.859334-115.850303h-433.652936a116.482477 116.482477 0 0 0-82.941159 33.456426 116.482477 116.482477 0 0 0-34.769541 82.392071v799.179247H21.604077a23.543946 23.543946 0 0 0-19.732844 23.229665c0 11.536263 8.357333 21.367463 19.732844 23.229666h681.063956v-46.46475H133.740812V147.108572zM919.288593 350.312605h-102.224256a23.543946 23.543946 0 0 0-19.731037 23.233278 23.534915 23.534915 0 0 0 19.731037 23.229665h102.224256a55.786599 55.786599 0 0 1 39.429562 16.329944 55.782987 55.782987 0 0 1 16.326332 39.429562v162.121789h47.08428v-163.980379c-1.34382-55.833561-46.999388-100.378309-102.840174-100.363859z" fill="" p-id="3284"></path><path d="M309.060577 340.400125h238.519049a23.54214 23.54214 0 0 0 0-46.462944H309.060577c-12.831315 0-23.227859 10.403769-23.22786 23.231472 0 12.834928 10.396544 23.231472 23.22786 23.231472zM547.579626 492.184974H309.060577c-12.831315 0-23.227859 10.403769-23.22786 23.233278s10.39835 23.233278 23.22786 23.233278h238.519049c12.833121 0 23.229666-10.403769 23.229665-23.233278s-10.403769-23.233278-23.229665-23.233278zM547.579626 663.787559H309.060577c-12.831315 0-23.227859 10.396544-23.22786 23.226053 0 12.833121 10.39835 23.226053 23.22786 23.226053h238.519049a23.536721 23.536721 0 0 0 19.741874-23.226053 23.55659 23.55659 0 0 0-19.741874-23.226053zM988.004043 784.433349h-116.970154v-116.970153c0-15.623716-12.668756-28.303309-28.299696-28.303309-15.623716 0-28.299697 12.679594-28.299697 28.303309v116.970153H697.471567c-15.630941 0-28.303309 12.672369-28.303309 28.296085s12.672369 28.299697 28.303309 28.299696h116.962929v116.966541c0 15.627328 12.675981 28.299697 28.299697 28.299697 15.630941 0 28.299697-12.672369 28.299696-28.299697v-116.970153h116.970154c15.623716 0 28.299697-12.672369 28.299697-28.296084 0-15.630941-12.670562-28.296084-28.299697-28.296085z" fill="" p-id="3285"></path></svg>