 <svg class="icon" viewBox="0 0 1030 1024" version="1.1" xmlns="http://www.w3.org/2000/svg" p-id="3306" height="128" width="128"><path d="M450.56 61.44c-119.466667 0-221.866667 98.986667-221.866667 221.866667 0 71.68 30.72 133.12 81.92 180.906666l17.066667 10.24-17.066667 6.826667c-146.773333 54.613333-245.76 194.56-249.173333 354.986667v3.413333c0 58.026667 47.786667 105.813333 105.813333 105.813333l290.133334 3.413334c10.24 0 27.306667-3.413333 27.306666-23.893334 0-23.893333-17.066667-23.893333-23.893333-23.893333L170.666667 894.293333c-27.306667 0-61.44-30.72-61.44-61.44 3.413333-167.253333 139.946667-314.026667 300.373333-320.853333h44.373333c37.546667-3.413333 92.16-10.24 122.88-37.546667l13.653334-10.24c54.613333-44.373333 85.333333-105.813333 88.746666-177.493333 0-119.466667-98.986667-221.866667-228.693333-225.28z m3.413333 402.773333c-98.986667 0-177.493333-81.92-174.08-180.906666 0-98.986667 81.92-177.493333 180.906667-174.08 95.573333 0 177.493333 81.92 174.08 180.906666-3.413333 98.986667-85.333333 177.493333-180.906667 174.08zM525.653333 696.32h392.533334c13.653333 0 27.306667 13.653333 27.306666 27.306667s-13.653333 27.306667-27.306666 27.306666H525.653333c-13.653333 0-27.306667-13.653333-27.306666-27.306666 3.413333-13.653333 13.653333-27.306667 27.306666-27.306667zM747.52 529.066667V921.6c0 13.653333-13.653333 27.306667-27.306667 27.306667s-27.306667-13.653333-27.306666-27.306667V529.066667c0-13.653333 13.653333-27.306667 27.306666-27.306667 17.066667 3.413333 27.306667 13.653333 27.306667 27.306667z" p-id="3307"></path></svg>